<mxfile host="Electron" modified="2024-07-10T21:04:55.829Z" agent="Mozilla/5.0 (Windows NT 10.0; Win64; x64) AppleWebKit/537.36 (KHTML, like Gecko) draw.io/23.1.5 Chrome/120.0.6099.109 Electron/28.1.0 Safari/537.36" etag="fLxde4D76XDivgFQTPHM" version="23.1.5" type="device">
  <diagram name="Page-1" id="Xc0k_2WqjBr9LDZd-4Mv">
    <mxGraphModel dx="1050" dy="629" grid="1" gridSize="10" guides="1" tooltips="1" connect="1" arrows="1" fold="1" page="1" pageScale="1" pageWidth="850" pageHeight="1100" math="0" shadow="0">
      <root>
        <mxCell id="0" />
        <mxCell id="1" parent="0" />
        <mxCell id="nyKW-0DHFZRh6trmiaiU-1" value="Читательский билет" style="whiteSpace=wrap;html=1;align=center;" parent="1" vertex="1">
          <mxGeometry x="20" y="590" width="100" height="40" as="geometry" />
        </mxCell>
        <mxCell id="nyKW-0DHFZRh6trmiaiU-2" value="Дата оформлеиня" style="ellipse;whiteSpace=wrap;html=1;align=center;" parent="1" vertex="1">
          <mxGeometry x="80" y="740" width="100" height="40" as="geometry" />
        </mxCell>
        <mxCell id="nyKW-0DHFZRh6trmiaiU-3" value="Срок действия" style="ellipse;whiteSpace=wrap;html=1;align=center;" parent="1" vertex="1">
          <mxGeometry x="80" y="690" width="100" height="40" as="geometry" />
        </mxCell>
        <mxCell id="nyKW-0DHFZRh6trmiaiU-4" value="" style="endArrow=none;html=1;rounded=0;entryX=0.5;entryY=1;entryDx=0;entryDy=0;exitX=0;exitY=0.5;exitDx=0;exitDy=0;edgeStyle=orthogonalEdgeStyle;" parent="1" source="nyKW-0DHFZRh6trmiaiU-3" target="nyKW-0DHFZRh6trmiaiU-1" edge="1">
          <mxGeometry width="50" height="50" relative="1" as="geometry">
            <mxPoint x="10" y="690" as="sourcePoint" />
            <mxPoint x="60" y="640" as="targetPoint" />
          </mxGeometry>
        </mxCell>
        <mxCell id="nyKW-0DHFZRh6trmiaiU-5" value="" style="endArrow=none;html=1;rounded=0;entryX=0.5;entryY=1;entryDx=0;entryDy=0;exitX=0;exitY=0.5;exitDx=0;exitDy=0;edgeStyle=orthogonalEdgeStyle;" parent="1" source="nyKW-0DHFZRh6trmiaiU-2" target="nyKW-0DHFZRh6trmiaiU-1" edge="1">
          <mxGeometry width="50" height="50" relative="1" as="geometry">
            <mxPoint x="170" y="600" as="sourcePoint" />
            <mxPoint x="220" y="550" as="targetPoint" />
          </mxGeometry>
        </mxCell>
        <mxCell id="nyKW-0DHFZRh6trmiaiU-6" value="Читатель" style="whiteSpace=wrap;html=1;align=center;" parent="1" vertex="1">
          <mxGeometry x="350" y="590" width="100" height="40" as="geometry" />
        </mxCell>
        <mxCell id="nyKW-0DHFZRh6trmiaiU-7" value="Телефон" style="ellipse;whiteSpace=wrap;html=1;align=center;" parent="1" vertex="1">
          <mxGeometry x="450" y="650" width="100" height="40" as="geometry" />
        </mxCell>
        <mxCell id="nyKW-0DHFZRh6trmiaiU-8" value="ФИО" style="ellipse;whiteSpace=wrap;html=1;align=center;" parent="1" vertex="1">
          <mxGeometry x="250" y="650" width="100" height="40" as="geometry" />
        </mxCell>
        <mxCell id="nyKW-0DHFZRh6trmiaiU-11" value="Пароль" style="ellipse;whiteSpace=wrap;html=1;align=center;" parent="1" vertex="1">
          <mxGeometry x="450" y="700" width="100" height="40" as="geometry" />
        </mxCell>
        <mxCell id="nyKW-0DHFZRh6trmiaiU-12" value="Возраст" style="ellipse;whiteSpace=wrap;html=1;align=center;" parent="1" vertex="1">
          <mxGeometry x="250" y="700" width="100" height="40" as="geometry" />
        </mxCell>
        <mxCell id="nyKW-0DHFZRh6trmiaiU-13" value="" style="endArrow=none;html=1;rounded=0;entryX=0.5;entryY=1;entryDx=0;entryDy=0;exitX=1;exitY=0.5;exitDx=0;exitDy=0;edgeStyle=orthogonalEdgeStyle;" parent="1" source="nyKW-0DHFZRh6trmiaiU-8" target="nyKW-0DHFZRh6trmiaiU-6" edge="1">
          <mxGeometry width="50" height="50" relative="1" as="geometry">
            <mxPoint x="160" y="665" as="sourcePoint" />
            <mxPoint x="210" y="615" as="targetPoint" />
          </mxGeometry>
        </mxCell>
        <mxCell id="nyKW-0DHFZRh6trmiaiU-14" value="" style="endArrow=none;html=1;rounded=0;entryX=0.5;entryY=1;entryDx=0;entryDy=0;exitX=0;exitY=0.5;exitDx=0;exitDy=0;edgeStyle=orthogonalEdgeStyle;" parent="1" source="nyKW-0DHFZRh6trmiaiU-7" target="nyKW-0DHFZRh6trmiaiU-6" edge="1">
          <mxGeometry width="50" height="50" relative="1" as="geometry">
            <mxPoint x="370" y="785" as="sourcePoint" />
            <mxPoint x="420" y="735" as="targetPoint" />
          </mxGeometry>
        </mxCell>
        <mxCell id="nyKW-0DHFZRh6trmiaiU-15" value="" style="endArrow=none;html=1;rounded=0;entryX=0.5;entryY=1;entryDx=0;entryDy=0;exitX=1;exitY=0.5;exitDx=0;exitDy=0;edgeStyle=orthogonalEdgeStyle;" parent="1" source="nyKW-0DHFZRh6trmiaiU-12" target="nyKW-0DHFZRh6trmiaiU-6" edge="1">
          <mxGeometry width="50" height="50" relative="1" as="geometry">
            <mxPoint x="370" y="785" as="sourcePoint" />
            <mxPoint x="420" y="735" as="targetPoint" />
          </mxGeometry>
        </mxCell>
        <mxCell id="nyKW-0DHFZRh6trmiaiU-16" value="" style="endArrow=none;html=1;rounded=0;exitX=0;exitY=0.5;exitDx=0;exitDy=0;edgeStyle=orthogonalEdgeStyle;" parent="1" source="nyKW-0DHFZRh6trmiaiU-11" target="nyKW-0DHFZRh6trmiaiU-6" edge="1">
          <mxGeometry width="50" height="50" relative="1" as="geometry">
            <mxPoint x="380" y="865" as="sourcePoint" />
            <mxPoint x="430" y="815" as="targetPoint" />
          </mxGeometry>
        </mxCell>
        <mxCell id="nyKW-0DHFZRh6trmiaiU-17" value="Книга" style="whiteSpace=wrap;html=1;align=center;" parent="1" vertex="1">
          <mxGeometry x="350" y="350" width="100" height="40" as="geometry" />
        </mxCell>
        <mxCell id="nyKW-0DHFZRh6trmiaiU-18" value="Название" style="ellipse;whiteSpace=wrap;html=1;align=center;" parent="1" vertex="1">
          <mxGeometry x="210" y="250" width="100" height="40" as="geometry" />
        </mxCell>
        <mxCell id="nyKW-0DHFZRh6trmiaiU-24" value="Автор" style="ellipse;whiteSpace=wrap;html=1;align=center;" parent="1" vertex="1">
          <mxGeometry x="210" y="300" width="100" height="40" as="geometry" />
        </mxCell>
        <mxCell id="nyKW-0DHFZRh6trmiaiU-25" value="Жанр" style="ellipse;whiteSpace=wrap;html=1;align=center;" parent="1" vertex="1">
          <mxGeometry x="480" y="260" width="100" height="40" as="geometry" />
        </mxCell>
        <mxCell id="nyKW-0DHFZRh6trmiaiU-26" value="Год издания" style="ellipse;whiteSpace=wrap;html=1;align=center;" parent="1" vertex="1">
          <mxGeometry x="480" y="310" width="100" height="40" as="geometry" />
        </mxCell>
        <mxCell id="nyKW-0DHFZRh6trmiaiU-27" value="Язык" style="ellipse;whiteSpace=wrap;html=1;align=center;" parent="1" vertex="1">
          <mxGeometry x="480" y="360" width="100" height="40" as="geometry" />
        </mxCell>
        <mxCell id="nyKW-0DHFZRh6trmiaiU-28" value="Возрастное&amp;nbsp;&lt;br&gt;ограничение" style="ellipse;whiteSpace=wrap;html=1;align=center;" parent="1" vertex="1">
          <mxGeometry x="480" y="410" width="100" height="40" as="geometry" />
        </mxCell>
        <mxCell id="nyKW-0DHFZRh6trmiaiU-29" value="Издательство" style="ellipse;whiteSpace=wrap;html=1;align=center;" parent="1" vertex="1">
          <mxGeometry x="210" y="350" width="100" height="40" as="geometry" />
        </mxCell>
        <mxCell id="nyKW-0DHFZRh6trmiaiU-30" value="Количество экземпляров" style="ellipse;whiteSpace=wrap;html=1;align=center;" parent="1" vertex="1">
          <mxGeometry x="210" y="400" width="100" height="40" as="geometry" />
        </mxCell>
        <mxCell id="nyKW-0DHFZRh6trmiaiU-31" value="" style="endArrow=none;html=1;rounded=0;entryX=0;entryY=0.5;entryDx=0;entryDy=0;exitX=1;exitY=0.5;exitDx=0;exitDy=0;edgeStyle=orthogonalEdgeStyle;" parent="1" source="nyKW-0DHFZRh6trmiaiU-30" target="nyKW-0DHFZRh6trmiaiU-17" edge="1">
          <mxGeometry width="50" height="50" relative="1" as="geometry">
            <mxPoint x="110" y="440" as="sourcePoint" />
            <mxPoint x="160" y="390" as="targetPoint" />
          </mxGeometry>
        </mxCell>
        <mxCell id="nyKW-0DHFZRh6trmiaiU-33" value="" style="endArrow=none;html=1;rounded=0;entryX=1;entryY=0.5;entryDx=0;entryDy=0;exitX=0;exitY=0.5;exitDx=0;exitDy=0;edgeStyle=orthogonalEdgeStyle;" parent="1" source="nyKW-0DHFZRh6trmiaiU-17" target="nyKW-0DHFZRh6trmiaiU-24" edge="1">
          <mxGeometry width="50" height="50" relative="1" as="geometry">
            <mxPoint x="420" y="490" as="sourcePoint" />
            <mxPoint x="470" y="440" as="targetPoint" />
          </mxGeometry>
        </mxCell>
        <mxCell id="nyKW-0DHFZRh6trmiaiU-34" value="" style="endArrow=none;html=1;rounded=0;entryX=1;entryY=0.5;entryDx=0;entryDy=0;exitX=0;exitY=0.5;exitDx=0;exitDy=0;edgeStyle=orthogonalEdgeStyle;" parent="1" source="nyKW-0DHFZRh6trmiaiU-17" target="nyKW-0DHFZRh6trmiaiU-18" edge="1">
          <mxGeometry width="50" height="50" relative="1" as="geometry">
            <mxPoint x="420" y="490" as="sourcePoint" />
            <mxPoint x="470" y="440" as="targetPoint" />
          </mxGeometry>
        </mxCell>
        <mxCell id="nyKW-0DHFZRh6trmiaiU-35" value="" style="endArrow=none;html=1;rounded=0;entryX=0;entryY=0.5;entryDx=0;entryDy=0;edgeStyle=orthogonalEdgeStyle;" parent="1" target="nyKW-0DHFZRh6trmiaiU-25" edge="1">
          <mxGeometry width="50" height="50" relative="1" as="geometry">
            <mxPoint x="450" y="370" as="sourcePoint" />
            <mxPoint x="470" y="440" as="targetPoint" />
          </mxGeometry>
        </mxCell>
        <mxCell id="nyKW-0DHFZRh6trmiaiU-36" value="" style="endArrow=none;html=1;rounded=0;entryX=0;entryY=0.5;entryDx=0;entryDy=0;exitX=1;exitY=0.5;exitDx=0;exitDy=0;edgeStyle=orthogonalEdgeStyle;" parent="1" source="nyKW-0DHFZRh6trmiaiU-17" target="nyKW-0DHFZRh6trmiaiU-27" edge="1">
          <mxGeometry width="50" height="50" relative="1" as="geometry">
            <mxPoint x="440" y="520" as="sourcePoint" />
            <mxPoint x="490" y="470" as="targetPoint" />
          </mxGeometry>
        </mxCell>
        <mxCell id="nyKW-0DHFZRh6trmiaiU-37" value="" style="endArrow=none;html=1;rounded=0;entryX=0;entryY=0.5;entryDx=0;entryDy=0;exitX=1;exitY=0.5;exitDx=0;exitDy=0;edgeStyle=orthogonalEdgeStyle;" parent="1" source="nyKW-0DHFZRh6trmiaiU-17" target="nyKW-0DHFZRh6trmiaiU-28" edge="1">
          <mxGeometry width="50" height="50" relative="1" as="geometry">
            <mxPoint x="360" y="570" as="sourcePoint" />
            <mxPoint x="410" y="520" as="targetPoint" />
          </mxGeometry>
        </mxCell>
        <mxCell id="nyKW-0DHFZRh6trmiaiU-38" value="" style="endArrow=none;html=1;rounded=0;entryX=0;entryY=0.5;entryDx=0;entryDy=0;edgeStyle=orthogonalEdgeStyle;" parent="1" target="nyKW-0DHFZRh6trmiaiU-26" edge="1">
          <mxGeometry width="50" height="50" relative="1" as="geometry">
            <mxPoint x="450" y="370" as="sourcePoint" />
            <mxPoint x="470" y="490" as="targetPoint" />
          </mxGeometry>
        </mxCell>
        <mxCell id="nyKW-0DHFZRh6trmiaiU-39" value="" style="endArrow=none;html=1;rounded=0;entryX=0;entryY=0.5;entryDx=0;entryDy=0;exitX=1;exitY=0.5;exitDx=0;exitDy=0;edgeStyle=orthogonalEdgeStyle;" parent="1" source="nyKW-0DHFZRh6trmiaiU-29" target="nyKW-0DHFZRh6trmiaiU-17" edge="1">
          <mxGeometry width="50" height="50" relative="1" as="geometry">
            <mxPoint x="140" y="450" as="sourcePoint" />
            <mxPoint x="190" y="400" as="targetPoint" />
          </mxGeometry>
        </mxCell>
        <mxCell id="nyKW-0DHFZRh6trmiaiU-40" value="Владеет" style="shape=rhombus;perimeter=rhombusPerimeter;whiteSpace=wrap;html=1;align=center;" parent="1" vertex="1">
          <mxGeometry x="175" y="580" width="120" height="60" as="geometry" />
        </mxCell>
        <mxCell id="nyKW-0DHFZRh6trmiaiU-41" value="1" style="endArrow=none;html=1;rounded=0;entryX=0;entryY=0.5;entryDx=0;entryDy=0;exitX=1;exitY=0.5;exitDx=0;exitDy=0;" parent="1" source="nyKW-0DHFZRh6trmiaiU-1" target="nyKW-0DHFZRh6trmiaiU-40" edge="1">
          <mxGeometry width="50" height="50" relative="1" as="geometry">
            <mxPoint x="170" y="500" as="sourcePoint" />
            <mxPoint x="220" y="450" as="targetPoint" />
          </mxGeometry>
        </mxCell>
        <mxCell id="nyKW-0DHFZRh6trmiaiU-42" value="1" style="endArrow=none;html=1;rounded=0;exitX=1;exitY=0.5;exitDx=0;exitDy=0;entryX=0;entryY=0.5;entryDx=0;entryDy=0;" parent="1" source="nyKW-0DHFZRh6trmiaiU-40" target="nyKW-0DHFZRh6trmiaiU-6" edge="1">
          <mxGeometry width="50" height="50" relative="1" as="geometry">
            <mxPoint x="315" y="610.0000000000002" as="sourcePoint" />
            <mxPoint x="360" y="540" as="targetPoint" />
            <Array as="points">
              <mxPoint x="330" y="610" />
            </Array>
          </mxGeometry>
        </mxCell>
        <mxCell id="nyKW-0DHFZRh6trmiaiU-43" value="Предпочитает" style="shape=rhombus;perimeter=rhombusPerimeter;whiteSpace=wrap;html=1;align=center;" parent="1" vertex="1">
          <mxGeometry x="340" y="460" width="120" height="60" as="geometry" />
        </mxCell>
        <mxCell id="nyKW-0DHFZRh6trmiaiU-44" value="m" style="endArrow=none;html=1;rounded=0;entryX=0.5;entryY=1;entryDx=0;entryDy=0;exitX=0.5;exitY=0;exitDx=0;exitDy=0;" parent="1" source="nyKW-0DHFZRh6trmiaiU-43" target="nyKW-0DHFZRh6trmiaiU-17" edge="1">
          <mxGeometry width="50" height="50" relative="1" as="geometry">
            <mxPoint x="405" y="440.0000000000002" as="sourcePoint" />
            <mxPoint x="215" y="440" as="targetPoint" />
          </mxGeometry>
        </mxCell>
        <mxCell id="nyKW-0DHFZRh6trmiaiU-45" value="n" style="endArrow=none;html=1;rounded=0;entryX=0.5;entryY=1;entryDx=0;entryDy=0;exitX=0.5;exitY=0;exitDx=0;exitDy=0;" parent="1" source="nyKW-0DHFZRh6trmiaiU-6" target="nyKW-0DHFZRh6trmiaiU-43" edge="1">
          <mxGeometry width="50" height="50" relative="1" as="geometry">
            <mxPoint x="190" y="520" as="sourcePoint" />
            <mxPoint x="240" y="470" as="targetPoint" />
          </mxGeometry>
        </mxCell>
        <mxCell id="nyKW-0DHFZRh6trmiaiU-47" value="Статус действия" style="ellipse;whiteSpace=wrap;html=1;align=center;" parent="1" vertex="1">
          <mxGeometry x="80" y="790" width="100" height="40" as="geometry" />
        </mxCell>
        <mxCell id="nyKW-0DHFZRh6trmiaiU-48" value="" style="endArrow=none;html=1;rounded=0;entryX=0.5;entryY=1;entryDx=0;entryDy=0;exitX=0;exitY=0.5;exitDx=0;exitDy=0;edgeStyle=orthogonalEdgeStyle;" parent="1" source="nyKW-0DHFZRh6trmiaiU-47" target="nyKW-0DHFZRh6trmiaiU-1" edge="1">
          <mxGeometry width="50" height="50" relative="1" as="geometry">
            <mxPoint x="10" y="800" as="sourcePoint" />
            <mxPoint x="60" y="750" as="targetPoint" />
          </mxGeometry>
        </mxCell>
        <mxCell id="nyKW-0DHFZRh6trmiaiU-49" value="Бронь" style="whiteSpace=wrap;html=1;align=center;" parent="1" vertex="1">
          <mxGeometry x="650" y="590" width="100" height="40" as="geometry" />
        </mxCell>
        <mxCell id="nyKW-0DHFZRh6trmiaiU-50" value="&amp;nbsp;Забронировать" style="shape=rhombus;perimeter=rhombusPerimeter;whiteSpace=wrap;html=1;align=center;" parent="1" vertex="1">
          <mxGeometry x="490" y="580" width="120" height="60" as="geometry" />
        </mxCell>
        <mxCell id="nyKW-0DHFZRh6trmiaiU-51" value="n" style="endArrow=none;html=1;rounded=0;entryX=1;entryY=0.5;entryDx=0;entryDy=0;exitX=0;exitY=0.5;exitDx=0;exitDy=0;" parent="1" source="nyKW-0DHFZRh6trmiaiU-49" target="nyKW-0DHFZRh6trmiaiU-50" edge="1">
          <mxGeometry width="50" height="50" relative="1" as="geometry">
            <mxPoint x="620" y="720" as="sourcePoint" />
            <mxPoint x="670" y="670" as="targetPoint" />
          </mxGeometry>
        </mxCell>
        <mxCell id="nyKW-0DHFZRh6trmiaiU-52" value="1" style="endArrow=none;html=1;rounded=0;entryX=1;entryY=0.5;entryDx=0;entryDy=0;exitX=0;exitY=0.5;exitDx=0;exitDy=0;" parent="1" source="nyKW-0DHFZRh6trmiaiU-50" target="nyKW-0DHFZRh6trmiaiU-6" edge="1">
          <mxGeometry width="50" height="50" relative="1" as="geometry">
            <mxPoint x="660" y="620" as="sourcePoint" />
            <mxPoint x="620" y="620" as="targetPoint" />
          </mxGeometry>
        </mxCell>
        <mxCell id="nyKW-0DHFZRh6trmiaiU-53" value="Дата выдачи&lt;br&gt;брони" style="ellipse;whiteSpace=wrap;html=1;align=center;" parent="1" vertex="1">
          <mxGeometry x="710" y="650" width="100" height="40" as="geometry" />
        </mxCell>
        <mxCell id="nyKW-0DHFZRh6trmiaiU-54" value="Дата возврата" style="ellipse;whiteSpace=wrap;html=1;align=center;" parent="1" vertex="1">
          <mxGeometry x="710" y="700" width="100" height="40" as="geometry" />
        </mxCell>
        <mxCell id="nyKW-0DHFZRh6trmiaiU-55" value="Cостояние" style="ellipse;whiteSpace=wrap;html=1;align=center;" parent="1" vertex="1">
          <mxGeometry x="710" y="750" width="100" height="40" as="geometry" />
        </mxCell>
        <mxCell id="nyKW-0DHFZRh6trmiaiU-56" value="Содержит" style="shape=rhombus;perimeter=rhombusPerimeter;whiteSpace=wrap;html=1;align=center;" parent="1" vertex="1">
          <mxGeometry x="640" y="490" width="120" height="60" as="geometry" />
        </mxCell>
        <mxCell id="nyKW-0DHFZRh6trmiaiU-57" value="n" style="endArrow=none;html=1;rounded=0;entryX=0.5;entryY=1;entryDx=0;entryDy=0;exitX=0.5;exitY=0;exitDx=0;exitDy=0;" parent="1" source="nyKW-0DHFZRh6trmiaiU-49" target="nyKW-0DHFZRh6trmiaiU-56" edge="1">
          <mxGeometry width="50" height="50" relative="1" as="geometry">
            <mxPoint x="520" y="580" as="sourcePoint" />
            <mxPoint x="570" y="530" as="targetPoint" />
          </mxGeometry>
        </mxCell>
        <mxCell id="nyKW-0DHFZRh6trmiaiU-58" value="1" style="endArrow=none;html=1;rounded=0;entryX=0.75;entryY=1;entryDx=0;entryDy=0;exitX=0.5;exitY=0;exitDx=0;exitDy=0;edgeStyle=orthogonalEdgeStyle;" parent="1" source="nyKW-0DHFZRh6trmiaiU-56" target="nyKW-0DHFZRh6trmiaiU-17" edge="1">
          <mxGeometry width="50" height="50" relative="1" as="geometry">
            <mxPoint x="540" y="560" as="sourcePoint" />
            <mxPoint x="590" y="510" as="targetPoint" />
            <Array as="points">
              <mxPoint x="700" y="460" />
              <mxPoint x="425" y="460" />
            </Array>
          </mxGeometry>
        </mxCell>
        <mxCell id="nyKW-0DHFZRh6trmiaiU-59" value="" style="endArrow=none;html=1;rounded=0;entryX=0.5;entryY=1;entryDx=0;entryDy=0;exitX=0;exitY=0.5;exitDx=0;exitDy=0;edgeStyle=orthogonalEdgeStyle;" parent="1" source="nyKW-0DHFZRh6trmiaiU-55" target="nyKW-0DHFZRh6trmiaiU-49" edge="1">
          <mxGeometry width="50" height="50" relative="1" as="geometry">
            <mxPoint x="620" y="830" as="sourcePoint" />
            <mxPoint x="670" y="780" as="targetPoint" />
          </mxGeometry>
        </mxCell>
        <mxCell id="nyKW-0DHFZRh6trmiaiU-62" value="" style="endArrow=none;html=1;rounded=0;entryX=0.5;entryY=1;entryDx=0;entryDy=0;exitX=0;exitY=0.5;exitDx=0;exitDy=0;edgeStyle=orthogonalEdgeStyle;" parent="1" source="nyKW-0DHFZRh6trmiaiU-53" target="nyKW-0DHFZRh6trmiaiU-49" edge="1">
          <mxGeometry width="50" height="50" relative="1" as="geometry">
            <mxPoint x="550" y="840" as="sourcePoint" />
            <mxPoint x="600" y="790" as="targetPoint" />
          </mxGeometry>
        </mxCell>
        <mxCell id="nyKW-0DHFZRh6trmiaiU-63" value="" style="endArrow=none;html=1;rounded=0;entryX=0.5;entryY=1;entryDx=0;entryDy=0;exitX=0;exitY=0.5;exitDx=0;exitDy=0;edgeStyle=orthogonalEdgeStyle;" parent="1" source="nyKW-0DHFZRh6trmiaiU-54" target="nyKW-0DHFZRh6trmiaiU-49" edge="1">
          <mxGeometry width="50" height="50" relative="1" as="geometry">
            <mxPoint x="570" y="760" as="sourcePoint" />
            <mxPoint x="620" y="710" as="targetPoint" />
          </mxGeometry>
        </mxCell>
        <mxCell id="nyKW-0DHFZRh6trmiaiU-66" value="Редкость" style="ellipse;whiteSpace=wrap;html=1;align=center;" parent="1" vertex="1">
          <mxGeometry x="210" y="450" width="100" height="40" as="geometry" />
        </mxCell>
        <mxCell id="nyKW-0DHFZRh6trmiaiU-67" value="" style="endArrow=none;html=1;rounded=0;entryX=0;entryY=0.5;entryDx=0;entryDy=0;exitX=1;exitY=0.5;exitDx=0;exitDy=0;edgeStyle=orthogonalEdgeStyle;" parent="1" source="nyKW-0DHFZRh6trmiaiU-66" target="nyKW-0DHFZRh6trmiaiU-17" edge="1">
          <mxGeometry width="50" height="50" relative="1" as="geometry">
            <mxPoint x="140" y="490" as="sourcePoint" />
            <mxPoint x="190" y="440" as="targetPoint" />
          </mxGeometry>
        </mxCell>
        <mxCell id="rlCnQE9-nrRxnNlEk8GA-1" value="&amp;nbsp;Номер&lt;br&gt;билета" style="ellipse;whiteSpace=wrap;html=1;align=center;" vertex="1" parent="1">
          <mxGeometry x="80" y="640" width="100" height="40" as="geometry" />
        </mxCell>
        <mxCell id="rlCnQE9-nrRxnNlEk8GA-2" value="" style="endArrow=none;html=1;rounded=0;entryX=0.5;entryY=1;entryDx=0;entryDy=0;exitX=0;exitY=0.5;exitDx=0;exitDy=0;edgeStyle=orthogonalEdgeStyle;" edge="1" parent="1" source="rlCnQE9-nrRxnNlEk8GA-1" target="nyKW-0DHFZRh6trmiaiU-1">
          <mxGeometry width="50" height="50" relative="1" as="geometry">
            <mxPoint y="720" as="sourcePoint" />
            <mxPoint x="50" y="670" as="targetPoint" />
          </mxGeometry>
        </mxCell>
      </root>
    </mxGraphModel>
  </diagram>
</mxfile>
